# xmcd CD database file
#
# Track frame offsets:
#	150
#	14792
#	26037
#	40942
#	54591
#	64053
#	82647
#	92113
#	100764
#	109341
#	121360
#	134016
#	142027
#	157132
#	169421
#	182061
#	195626
#	221824
#	232025
#	244459
#	255242
#	272696
#	285800
#	310910
#	324685
#	337462
#
# Disc length: 4792 seconds
#
# Revision: 1
# Processed by: cddbd v1.5.1PL0 Copyright (c) Steve Scherf et al.
# Submitted via: CDex 1.50beta9
#
DISCID=9212b61a
DTITLE=Johnny Cash - Unearthed disc 1 (1-17)  American Recordings (18-26)
DYEAR=1900
DGENRE=Country
TTITLE0=Johnny Cash - Long Black Veil
TTITLE1=Johnny Cash - Flesh and Blood
TTITLE2=Johnny Cash - Just The Other Side of Nowhere
TTITLE3=Johnny Cash - If I Give My Soul
TTITLE4=Johnny Cash - Understand Your Man
TTITLE5=Johnny Cash - Banks of the Ohio
TTITLE6=Johnny Cash - Two Timin' Woman
TTITLE7=Johnny Cash - The Caretaker
TTITLE8=Johnny Cash - Old Chunk of Coal
TTITLE9=Johnny Cash - I'm Going to Memphis
TTITLE10=Johnny Cash - Breaking Bread
TTITLE11=Johnny Cash - Waiting For a Train
TTITLE12=Johnny Cash - Casey's Last Ride
TTITLE13=Johnny Cash - No Earthly Good
TTITLE14=Johnny Cash - The Fourth Man In The Fire
TTITLE15=Johnny Cash - Dark as a Dungeon
TTITLE16=Johnny Cash - Down There by the Train
TTITLE17=02 - Let The Train Blow The Whistle
TTITLE18=03 - The Beast In Me
TTITLE19=04 - Drive On
TTITLE20=07 - Oh Bury Me Not
TTITLE21=09 - Tennessee Stud
TTITLE22=10 - Down There By The Train
TTITLE23=11 - Redemption
TTITLE24=12 - Like A Soldier
TTITLE25=13 - The Man Who Couldn't Cry
EXTD=
EXTT0=
EXTT1=
EXTT2=
EXTT3=
EXTT4=
EXTT5=
EXTT6=
EXTT7=
EXTT8=
EXTT9=
EXTT10=
EXTT11=
EXTT12=
EXTT13=
EXTT14=
EXTT15=
EXTT16=
EXTT17=
EXTT18=
EXTT19=
EXTT20=
EXTT21=
EXTT22=
EXTT23=
EXTT24=
EXTT25=
PLAYORDER=
